HIERARCHY
ROOT Hips
{
	OFFSET 0.000000 0.000000 0.000000
	CHANNELS 6 Xposition Yposition Zposition Zrotation Yrotation Xrotation 
	JOINT LHipJoint
	{
		OFFSET 0.000000 0.000000 0.000000
		CHANNELS 3 Zrotation Yrotation Xrotation
		JOINT LeftUpLeg
		{
			OFFSET 1.363060 -1.794630 0.839290
			CHANNELS 3 Zrotation Yrotation Xrotation
			JOINT LeftLeg
			{
				OFFSET 2.448110 -6.726130 0.000000
				CHANNELS 3 Zrotation Yrotation Xrotation
				JOINT LeftFoot
				{
					OFFSET 2.562200 -7.039590 0.000000
					CHANNELS 3 Zrotation Yrotation Xrotation
					JOINT LeftToeBase
					{
						OFFSET 0.157640 -0.433110 2.322550
						CHANNELS 3 Zrotation Yrotation Xrotation
						End Site
						{
							OFFSET 0.000000 0.000000 0.000000
						}
					}
				}
			}
		}
	}
	JOINT RHipJoint
	{
		OFFSET 0.000000 0.000000 0.000000
		CHANNELS 3 Zrotation Yrotation Xrotation
		JOINT RightUpLeg
		{
			OFFSET -1.305520 -1.794630 0.839290
			CHANNELS 3 Zrotation Yrotation Xrotation
			JOINT RightLeg
			{
				OFFSET -2.542530 -6.985550 0.000000
				CHANNELS 3 Zrotation Yrotation Xrotation
				JOINT RightFoot
				{
					OFFSET -2.568260 -7.056230 0.000000
					CHANNELS 3 Zrotation Yrotation Xrotation
					JOINT RightToeBase
					{
						OFFSET -0.164730 -0.452590 2.363150
						CHANNELS 3 Zrotation Yrotation Xrotation
						End Site
						{
							OFFSET 0.000000 0.000000 0.000000
						}
					}
				}
			}
		}
	}
	JOINT LowerBack
	{
		OFFSET 0.000000 0.000000 0.000000
		CHANNELS 3 Zrotation Yrotation Xrotation
		JOINT Spine
		{
			OFFSET 0.028270 2.035590 -0.193380
			CHANNELS 3 Zrotation Yrotation Xrotation
			JOINT Spine1
			{
				OFFSET 0.056720 2.048850 -0.042750
				CHANNELS 3 Zrotation Yrotation Xrotation
				JOINT Neck
				{
					OFFSET 0.000000 0.000000 0.000000
					CHANNELS 3 Zrotation Yrotation Xrotation
					JOINT Neck1
					{
						OFFSET -0.054170 1.746240 0.172020
						CHANNELS 3 Zrotation Yrotation Xrotation
						JOINT Head
						{
							OFFSET 0.104070 1.761360 -0.123970
							CHANNELS 3 Zrotation Yrotation Xrotation
							End Site
							{
								OFFSET 0.000000 0.000000 0.000000
							}
						}
					}
				}
				JOINT LeftShoulder
				{
					OFFSET 0.000000 0.000000 0.000000
					CHANNELS 3 Zrotation Yrotation Xrotation
					JOINT LeftArm
					{
						OFFSET 3.362410 1.200890 -0.311210
						CHANNELS 3 Zrotation Yrotation Xrotation
						JOINT LeftForeArm
						{
							OFFSET 4.983000 -0.000000 -0.000000
							CHANNELS 3 Zrotation Yrotation Xrotation
							JOINT LeftHand
							{
								OFFSET 3.483560 -0.000000 -0.000000
								CHANNELS 3 Zrotation Yrotation Xrotation
								JOINT LeftFingerBase
								{
									OFFSET 0.000000 0.000000 0.000000
									CHANNELS 3 Zrotation Yrotation Xrotation
									JOINT LeftHandIndex1
									{
										OFFSET 0.715260 -0.000000 -0.000000
										CHANNELS 3 Zrotation Yrotation Xrotation
										End Site
										{
											OFFSET 0.000000 0.000000 0.000000
										}
									}
								}
								JOINT LThumb
								{
									OFFSET 0.000000 0.000000 0.000000
									CHANNELS 3 Zrotation Yrotation Xrotation
									End Site
									{
										OFFSET 0.000000 0.000000 0.000000
									}
								}
							}
						}
					}
				}
				JOINT RightShoulder
				{
					OFFSET 0.000000 0.000000 0.000000
					CHANNELS 3 Zrotation Yrotation Xrotation
					JOINT RightArm
					{
						OFFSET -3.136600 1.374050 -0.404650
						CHANNELS 3 Zrotation Yrotation Xrotation
						JOINT RightForeArm
						{
							OFFSET -5.241900 -0.000000 -0.000000
							CHANNELS 3 Zrotation Yrotation Xrotation
							JOINT RightHand
							{
								OFFSET -3.444170 -0.000000 -0.000000
								CHANNELS 3 Zrotation Yrotation Xrotation
								JOINT RightFingerBase
								{
									OFFSET 0.000000 0.000000 0.000000
									CHANNELS 3 Zrotation Yrotation Xrotation
									JOINT RightHandIndex1
									{
										OFFSET -0.622530 -0.000000 -0.000000
										CHANNELS 3 Zrotation Yrotation Xrotation
										End Site
										{
											OFFSET 0.000000 0.000000 0.000000
										}
									}
								}
								JOINT RThumb
								{
									OFFSET 0.000000 0.000000 0.000000
									CHANNELS 3 Zrotation Yrotation Xrotation
									End Site
									{
										OFFSET 0.000000 0.000000 0.000000
									}
								}
							}
						}
					}
				}
			}
		}
	}
}
MOTION
Frames: 10
Frame Time: 0.008333
0.028634 17.519236 -27.544167 5.771216 -1.535912 -2.510096 11.732160 1.317053 -2.025199 -42.356919 -9.637761 7.447713 -3.273278 7.484322 20.859180 -0.963912 6.412339 -7.291282 0.683400 5.285600 14.724900 -14.328105 -0.616313 -1.642166 23.549564 14.761587 -22.915607 -4.535629 -18.777289 48.490231 0.189987 -4.039227 -6.109276 -0.305600 3.554400 -9.826100 -5.683396 0.465662 14.101820 -0.034325 -0.619241 1.018040 5.324093 0.867468 -13.692916 -6.609377 -5.044693 -10.101710 4.862824 -6.620357 11.614166 0.553500 -3.089500 7.108000 -8.881129 0.016711 0.048101 -74.604847 -0.359318 27.431167 11.449596 -27.920051 -2.851386 -0.140979 2.296527 -4.302647 6.682188 21.295696 2.174100 -7.125000 0.000000 0.000000 -20.686800 47.947100 -1.567300 11.475613 0.971502 -0.704739 63.784637 -13.847006 27.937574 -16.427214 35.985482 -4.442043 -0.741187 0.020939 -0.007505 -10.771278 18.465229 -3.210000 7.125000 0.000000 0.000000 11.799700 -11.517400 9.413000 
0.029283 17.523882 -27.439462 5.782730 -1.658477 -2.284311 11.671622 1.332155 -2.062922 -42.322336 -9.390885 7.992555 -3.386517 7.156651 20.120280 -0.959275 6.384786 -7.317807 0.685000 5.291500 14.741900 -14.269145 -0.561126 -1.568416 23.211395 15.611493 -23.153949 -3.759579 -18.255103 46.007854 0.285633 -4.880074 -5.534513 -0.385700 3.988000 -11.042900 -5.910441 0.391587 14.243707 0.107474 -0.781498 0.802682 5.725192 0.867180 -14.110686 -7.010987 -4.813415 -9.770800 5.031713 -6.284048 11.653811 0.723800 -2.947700 7.085800 -8.889856 -0.007455 0.054343 -74.947320 0.293894 27.321145 11.900535 -28.484890 -2.984599 -0.133338 2.252191 -4.339338 6.750275 20.749817 2.138800 -7.125000 0.000000 0.000000 -20.417700 47.486100 -1.304400 11.466143 0.994969 -0.724912 63.622525 -14.201108 27.711022 -15.694958 35.285872 -4.207610 -0.737834 0.096550 0.465102 -10.716758 18.903301 -3.254000 7.125000 0.000000 0.000000 11.832500 -11.157800 9.529900 
0.030363 17.527016 -27.321251 5.927506 -1.585111 -2.232823 11.624493 1.373420 -2.120484 -42.477444 -9.073680 9.015786 -3.544841 6.671105 19.054347 -1.006180 6.516819 -7.169963 0.641300 5.123100 14.260100 -14.195742 -0.523313 -1.524300 22.760918 16.316338 -23.107047 -3.058269 -17.677282 43.636831 0.378898 -5.708617 -4.952656 -0.353700 3.821000 -10.573700 -6.027709 0.327615 14.127686 0.083532 -0.874456 0.866449 5.752184 0.804644 -13.903613 -7.140529 -4.815992 -10.023083 5.189128 -6.241585 11.740269 0.814000 -2.919400 7.180500 -8.898454 -0.009211 0.068566 -74.955713 0.192619 27.533503 12.188054 -28.805822 -3.056936 -0.095777 2.174326 -4.316029 7.021176 19.859126 2.122000 -7.125000 0.000000 0.000000 -19.870200 46.756200 -0.895700 11.432764 1.010553 -0.733888 63.757953 -14.337537 27.365615 -15.290922 34.901341 -4.080281 -0.731448 0.098810 0.634783 -10.802968 18.714809 -3.253000 7.125000 0.000000 0.000000 11.773300 -11.337000 9.435700 
0.030039 17.534796 -27.196989 5.977352 -1.198603 -2.172317 11.567763 1.416046 -2.162034 -42.486204 -8.866573 10.048890 -3.681228 6.206269 18.065540 -1.033885 6.555817 -6.947094 0.598700 4.953300 13.775400 -14.109003 -0.496345 -1.504545 22.393006 16.829598 -22.863001 -2.380667 -17.021695 41.230507 0.464627 -6.498058 -4.616242 -0.330000 3.692200 -10.212400 -5.916290 0.205194 13.964483 -0.003366 -0.993726 0.991668 5.516317 0.685752 -13.551196 -6.937561 -4.874418 -10.448557 5.293204 -6.306223 11.627046 0.817300 -2.928100 7.202000 -8.903568 -0.013153 0.099222 -74.801736 -0.229092 27.591571 12.507770 -29.143686 -3.145932 -0.120999 2.111608 -4.258318 6.726045 19.317120 1.987100 -7.125000 0.000000 0.000000 -19.916500 46.269300 -0.649400 11.366861 1.021257 -0.739245 64.257991 -14.353315 26.457668 -14.855841 34.492555 -3.951015 -0.719794 0.102254 1.219320 -10.868851 18.518831 -3.245600 7.125000 0.000000 0.000000 11.724200 -11.521700 9.349000 
0.029391 17.546573 -27.076401 6.177627 -0.812477 -2.094469 11.516743 1.445351 -2.198514 -42.628331 -8.685186 11.020337 -3.817878 5.754018 17.080870 -1.038336 6.516442 -6.758361 0.608100 4.991300 13.883800 -14.026895 -0.468101 -1.469911 21.797394 17.444120 -22.672513 -1.746124 -16.348091 38.850925 0.565439 -7.404108 -4.150379 -0.403100 4.076000 -11.290600 -6.192304 0.047159 13.977505 0.041132 -1.265426 0.888219 5.768728 0.606266 -13.691972 -7.107131 -4.803059 -9.950154 5.335029 -6.240746 11.411450 0.879400 -2.918900 7.019200 -8.921538 -0.042503 0.117730 -74.915570 0.108673 27.755356 12.985005 -29.722057 -3.302851 -0.164574 2.130963 -4.474623 6.500194 19.644484 1.962900 -7.125000 0.000000 0.000000 -20.208200 46.531400 -0.795700 11.360827 1.022909 -0.767352 64.221266 -14.854925 26.008175 -14.342226 33.995519 -3.803649 -0.712234 0.152236 1.650502 -10.869904 18.757915 -3.280500 7.125000 0.000000 0.000000 11.719600 -11.329300 9.392600 
0.023448 17.547006 -26.972777 6.127197 -1.169311 -1.795978 11.467824 1.452539 -2.273593 -42.495517 -8.328216 11.540507 -3.933141 5.370356 16.203746 -1.091322 6.710332 -6.775801 0.603200 4.971300 13.826900 -14.007730 -0.374658 -1.360260 21.367405 18.886781 -22.816144 -1.071386 -15.745058 36.381410 0.659451 -8.372317 -3.711546 -0.314700 3.606100 -9.971000 -6.346931 0.130796 13.858204 0.129530 -1.188676 0.746813 5.960922 0.690371 -13.915851 -7.274622 -4.726803 -9.455488 5.414655 -6.171389 11.255095 0.958200 -2.902500 6.869300 -8.942455 -0.075379 0.133305 -74.961933 0.347824 28.079068 13.398230 -30.216560 -3.443238 -0.200933 2.172676 -4.727668 6.401220 20.217617 1.996600 -7.125000 0.000000 0.000000 -20.489500 47.017200 -1.063100 11.349672 1.027558 -0.798092 64.212905 -15.376694 25.559050 -13.832098 33.493696 -3.654426 -0.693995 0.189022 2.079356 -10.795426 18.784599 -3.259900 7.125000 0.000000 0.000000 11.757500 -11.341400 9.421400 
0.016100 17.543008 -26.865911 6.073756 -1.220590 -1.506255 11.415493 1.471776 -2.334149 -42.343475 -8.081781 12.188228 -4.053461 4.941158 15.237135 -1.142652 6.856982 -6.595811 0.565500 4.816500 13.385800 -13.970821 -0.293528 -1.280519 20.920857 20.109212 -22.717486 -0.473459 -15.097232 34.029364 0.746528 -9.226449 -3.757822 -0.192400 2.825100 -7.792100 -6.305304 0.192218 13.809455 0.114241 -1.092049 0.711707 5.832281 0.725565 -13.964601 -7.069717 -4.774893 -9.671140 5.421645 -6.241056 11.179111 0.919600 -2.922400 6.869800 -8.963699 -0.095453 0.157230 -74.723642 0.162620 28.799197 13.818563 -30.674912 -3.574477 -0.248340 2.184252 -5.317000 6.290803 20.559135 2.003800 -7.125000 0.000000 0.000000 -20.702200 47.310400 -1.230900 11.301908 1.054847 -0.815793 64.667831 -15.619997 24.576380 -13.376730 33.039601 -3.518943 -0.657532 0.183159 2.640044 -10.591816 18.317827 -3.128600 7.125000 0.000000 0.000000 11.868500 -11.810400 9.397000 
0.010589 17.547546 -26.747700 5.974189 -1.201022 -1.382082 11.375883 1.492370 -2.398094 -42.212162 -7.862189 13.052780 -4.157389 4.523137 14.353643 -1.237679 7.185510 -6.520513 0.491000 4.493000 12.467900 -13.951599 -0.209043 -1.194501 20.563561 21.472627 -22.313319 0.065764 -14.438751 31.785985 0.865415 -10.237368 -4.254528 -0.140400 2.414700 -6.653300 -6.225362 0.131450 13.813282 0.159084 -1.153669 0.693084 5.842026 0.686622 -13.982624 -7.068127 -4.796146 -9.805705 5.403506 -6.253312 11.194000 0.907300 -2.928200 6.899900 -8.978010 -0.117815 0.176536 -74.628634 0.073504 29.116220 14.196431 -31.088923 -3.699087 -0.292688 2.187023 -5.843351 6.146949 20.753585 1.984800 -7.125000 0.000000 0.000000 -20.889100 47.468700 -1.327800 11.277301 1.072322 -0.838249 64.879499 -15.924639 23.906746 -12.905178 32.586786 -3.410871 -0.694994 0.291488 3.305371 -10.946219 19.513763 -3.415500 7.125000 0.000000 0.000000 11.667000 -10.692400 9.504200 
0.008428 17.559000 -26.615982 6.086356 -0.328522 -1.450028 11.333930 1.539263 -2.442309 -42.261191 -7.828741 14.527816 -4.304660 3.908768 13.076024 -1.272167 7.199129 -6.051373 0.420100 4.160100 11.527500 -13.889190 -0.173569 -1.149667 19.988706 22.340291 -21.587540 0.478072 -13.761255 29.823416 1.041867 -11.451615 -5.271575 -0.142400 2.431800 -6.700600 -6.142997 -0.202569 13.903015 0.118620 -1.583077 0.691742 5.794645 0.465448 -13.945765 -7.170024 -4.842751 -9.559734 5.519871 -6.331921 11.057811 0.979100 -2.971800 6.806000 -8.992875 -0.145757 0.194035 -74.576782 0.282359 29.380258 14.570938 -31.517096 -3.830420 -0.313606 2.197341 -5.898482 6.058815 21.033080 1.989500 -7.125000 0.000000 0.000000 -21.066600 47.708200 -1.469600 11.242803 1.080550 -0.864525 65.073707 -16.323711 23.121488 -12.341349 32.066024 -3.308886 -0.770788 0.494636 4.019934 -11.597136 21.996970 -4.015100 7.125000 0.000000 0.000000 11.336800 -8.353500 9.767800 
-0.011994 17.549059 -26.503606 6.262991 -1.330591 -0.981520 11.338585 1.553968 -2.604583 -42.348129 -7.009352 15.150500 -4.465143 3.314528 11.645613 -1.426070 7.794236 -6.045561 0.361800 3.864200 10.694900 -13.928788 -0.029391 -0.980229 19.131755 24.496287 -22.086261 0.934121 -13.308364 27.846407 1.121088 -12.278333 -5.391232 -0.216100 2.992400 -8.257600 -6.582796 0.255789 13.409408 0.054116 -1.020680 0.720902 5.727369 0.738371 -13.768899 -6.987421 -4.964771 -9.730897 5.619266 -6.507209 10.878502 0.978900 -3.040200 6.758700 -9.011290 -0.166091 0.218251 -74.421710 0.214546 29.733678 14.951430 -31.935257 -3.969208 -0.377752 2.227093 -5.549173 5.471946 21.713610 1.883000 -7.125000 0.000000 0.000000 -21.814300 48.238000 -1.823500 11.169941 1.104607 -0.881279 65.662238 -16.507149 21.746552 -11.869796 31.607290 -3.213097 -0.784178 0.601692 4.744045 -11.745663 23.120455 -4.244100 7.125000 0.000000 0.000000 11.283800 -7.317700 9.954700 
